<mxfile host="app.diagrams.net" modified="2023-01-08T12:13:37.468Z" agent="5.0 (Windows NT 10.0; Win64; x64) AppleWebKit/537.36 (KHTML, like Gecko) Chrome/108.0.0.0 Safari/537.36" etag="8lkPgP46BQ0k0y8FuFCY" version="20.8.1" type="github">
  <diagram id="C5RBs43oDa-KdzZeNtuy" name="Page-1">
    <mxGraphModel dx="1434" dy="796" grid="1" gridSize="10" guides="1" tooltips="1" connect="1" arrows="1" fold="1" page="1" pageScale="1" pageWidth="1169" pageHeight="1654" math="0" shadow="0">
      <root>
        <mxCell id="WIyWlLk6GJQsqaUBKTNV-0" />
        <mxCell id="WIyWlLk6GJQsqaUBKTNV-1" parent="WIyWlLk6GJQsqaUBKTNV-0" />
        <mxCell id="WIyWlLk6GJQsqaUBKTNV-3" value="Начало" style="rounded=1;whiteSpace=wrap;html=1;fontSize=12;glass=0;strokeWidth=1;shadow=0;" parent="WIyWlLk6GJQsqaUBKTNV-1" vertex="1">
          <mxGeometry x="160" y="80" width="120" height="40" as="geometry" />
        </mxCell>
        <mxCell id="cBZI8WuT294_676heXQO-0" value="вывести &quot;Как вас зовут?&quot;" style="shape=parallelogram;perimeter=parallelogramPerimeter;whiteSpace=wrap;html=1;fixedSize=1;" parent="WIyWlLk6GJQsqaUBKTNV-1" vertex="1">
          <mxGeometry x="155" y="180" width="130" height="60" as="geometry" />
        </mxCell>
        <mxCell id="cBZI8WuT294_676heXQO-2" value="" style="endArrow=classic;html=1;rounded=0;" parent="WIyWlLk6GJQsqaUBKTNV-1" edge="1">
          <mxGeometry width="50" height="50" relative="1" as="geometry">
            <mxPoint x="219.66" y="240" as="sourcePoint" />
            <mxPoint x="220" y="280" as="targetPoint" />
          </mxGeometry>
        </mxCell>
        <mxCell id="cBZI8WuT294_676heXQO-3" value="" style="endArrow=classic;html=1;rounded=0;entryX=0.5;entryY=0;entryDx=0;entryDy=0;" parent="WIyWlLk6GJQsqaUBKTNV-1" target="cBZI8WuT294_676heXQO-0" edge="1">
          <mxGeometry width="50" height="50" relative="1" as="geometry">
            <mxPoint x="219.66000000000008" y="120" as="sourcePoint" />
            <mxPoint x="219.66000000000008" y="170" as="targetPoint" />
          </mxGeometry>
        </mxCell>
        <mxCell id="cBZI8WuT294_676heXQO-4" value="считать name" style="shape=parallelogram;perimeter=parallelogramPerimeter;whiteSpace=wrap;html=1;fixedSize=1;" parent="WIyWlLk6GJQsqaUBKTNV-1" vertex="1">
          <mxGeometry x="155" y="280" width="120" height="60" as="geometry" />
        </mxCell>
        <mxCell id="cBZI8WuT294_676heXQO-5" value="" style="endArrow=classic;html=1;rounded=0;exitX=0.5;exitY=1;exitDx=0;exitDy=0;entryX=0.542;entryY=0;entryDx=0;entryDy=0;entryPerimeter=0;" parent="WIyWlLk6GJQsqaUBKTNV-1" source="cBZI8WuT294_676heXQO-4" target="cBZI8WuT294_676heXQO-6" edge="1">
          <mxGeometry x="-1" y="-120" width="50" height="50" relative="1" as="geometry">
            <mxPoint x="210" y="340" as="sourcePoint" />
            <mxPoint x="215" y="380" as="targetPoint" />
            <mxPoint y="-10" as="offset" />
          </mxGeometry>
        </mxCell>
        <mxCell id="cBZI8WuT294_676heXQO-6" value="вывести &quot;Ваш логин?&quot;" style="shape=parallelogram;perimeter=parallelogramPerimeter;whiteSpace=wrap;html=1;fixedSize=1;" parent="WIyWlLk6GJQsqaUBKTNV-1" vertex="1">
          <mxGeometry x="150" y="380" width="120" height="60" as="geometry" />
        </mxCell>
        <mxCell id="Ing2cIt8eRQyEItcH29e-0" value="" style="endArrow=classic;html=1;rounded=0;" edge="1" parent="WIyWlLk6GJQsqaUBKTNV-1">
          <mxGeometry width="50" height="50" relative="1" as="geometry">
            <mxPoint x="214.5" y="440" as="sourcePoint" />
            <mxPoint x="214.5" y="480" as="targetPoint" />
          </mxGeometry>
        </mxCell>
        <mxCell id="Ing2cIt8eRQyEItcH29e-1" value="считать login" style="shape=parallelogram;perimeter=parallelogramPerimeter;whiteSpace=wrap;html=1;fixedSize=1;" vertex="1" parent="WIyWlLk6GJQsqaUBKTNV-1">
          <mxGeometry x="150" y="480" width="120" height="60" as="geometry" />
        </mxCell>
        <mxCell id="Ing2cIt8eRQyEItcH29e-2" value="IsPremium == True" style="rhombus;whiteSpace=wrap;html=1;" vertex="1" parent="WIyWlLk6GJQsqaUBKTNV-1">
          <mxGeometry x="160" y="580" width="110" height="100" as="geometry" />
        </mxCell>
        <mxCell id="Ing2cIt8eRQyEItcH29e-5" value="" style="endArrow=classic;html=1;rounded=0;" edge="1" parent="WIyWlLk6GJQsqaUBKTNV-1">
          <mxGeometry x="-1" y="-187" width="50" height="50" relative="1" as="geometry">
            <mxPoint x="214.5" y="540" as="sourcePoint" />
            <mxPoint x="214.5" y="580" as="targetPoint" />
            <mxPoint x="7" y="-50" as="offset" />
          </mxGeometry>
        </mxCell>
        <mxCell id="Ing2cIt8eRQyEItcH29e-6" value="" style="endArrow=classic;html=1;rounded=0;entryX=0;entryY=0.5;entryDx=0;entryDy=0;" edge="1" parent="WIyWlLk6GJQsqaUBKTNV-1" target="Ing2cIt8eRQyEItcH29e-15">
          <mxGeometry width="50" height="50" relative="1" as="geometry">
            <mxPoint x="160" y="630" as="sourcePoint" />
            <mxPoint x="180" y="1130" as="targetPoint" />
            <Array as="points">
              <mxPoint x="110" y="630" />
              <mxPoint x="110" y="1130" />
            </Array>
          </mxGeometry>
        </mxCell>
        <mxCell id="Ing2cIt8eRQyEItcH29e-7" value="" style="endArrow=classic;html=1;rounded=0;" edge="1" parent="WIyWlLk6GJQsqaUBKTNV-1">
          <mxGeometry x="1" y="-117" width="50" height="50" relative="1" as="geometry">
            <mxPoint x="270" y="630" as="sourcePoint" />
            <mxPoint x="310" y="710" as="targetPoint" />
            <Array as="points">
              <mxPoint x="310" y="630" />
            </Array>
            <mxPoint x="7" y="40" as="offset" />
          </mxGeometry>
        </mxCell>
        <mxCell id="Ing2cIt8eRQyEItcH29e-8" value="вывести &quot;Посетите наш новый сайт с бесплатными играми free.games.for.a.fool.com.&quot;" style="shape=parallelogram;perimeter=parallelogramPerimeter;whiteSpace=wrap;html=1;fixedSize=1;" vertex="1" parent="WIyWlLk6GJQsqaUBKTNV-1">
          <mxGeometry x="210" y="710" width="200" height="70" as="geometry" />
        </mxCell>
        <mxCell id="Ing2cIt8eRQyEItcH29e-10" value="" style="endArrow=classic;html=1;rounded=0;" edge="1" parent="WIyWlLk6GJQsqaUBKTNV-1">
          <mxGeometry x="-1" y="-85" width="50" height="50" relative="1" as="geometry">
            <mxPoint x="310" y="780" as="sourcePoint" />
            <mxPoint x="310" y="830" as="targetPoint" />
            <mxPoint x="5" y="-30" as="offset" />
          </mxGeometry>
        </mxCell>
        <mxCell id="Ing2cIt8eRQyEItcH29e-11" value="вывести &quot;Купите подписку на МыКомбо и слушайте музыку везде и всегда.&quot;" style="shape=parallelogram;perimeter=parallelogramPerimeter;whiteSpace=wrap;html=1;fixedSize=1;" vertex="1" parent="WIyWlLk6GJQsqaUBKTNV-1">
          <mxGeometry x="182.5" y="830" width="255" height="80" as="geometry" />
        </mxCell>
        <mxCell id="Ing2cIt8eRQyEItcH29e-12" value="вывести &quot;Оформите премиум-подписку на наш сервис, чтобы не видеть рекламу.&quot;" style="shape=parallelogram;perimeter=parallelogramPerimeter;whiteSpace=wrap;html=1;fixedSize=1;" vertex="1" parent="WIyWlLk6GJQsqaUBKTNV-1">
          <mxGeometry x="160" y="970" width="296.25" height="70" as="geometry" />
        </mxCell>
        <mxCell id="Ing2cIt8eRQyEItcH29e-13" value="" style="endArrow=classic;html=1;rounded=0;" edge="1" parent="WIyWlLk6GJQsqaUBKTNV-1">
          <mxGeometry x="-0.3333" y="-240" width="50" height="50" relative="1" as="geometry">
            <mxPoint x="312" y="910" as="sourcePoint" />
            <mxPoint x="312" y="970" as="targetPoint" />
            <mxPoint as="offset" />
          </mxGeometry>
        </mxCell>
        <mxCell id="Ing2cIt8eRQyEItcH29e-14" value="" style="endArrow=classic;html=1;rounded=0;" edge="1" parent="WIyWlLk6GJQsqaUBKTNV-1">
          <mxGeometry x="-1" y="-85" width="50" height="50" relative="1" as="geometry">
            <mxPoint x="312" y="1040" as="sourcePoint" />
            <mxPoint x="270" y="1130" as="targetPoint" />
            <Array as="points">
              <mxPoint x="312" y="1130" />
            </Array>
            <mxPoint x="5" y="-30" as="offset" />
          </mxGeometry>
        </mxCell>
        <mxCell id="Ing2cIt8eRQyEItcH29e-15" value="вывести &quot;Привет, &quot;&lt;br&gt;+ name" style="shape=parallelogram;perimeter=parallelogramPerimeter;whiteSpace=wrap;html=1;fixedSize=1;" vertex="1" parent="WIyWlLk6GJQsqaUBKTNV-1">
          <mxGeometry x="147.5" y="1100" width="135" height="60" as="geometry" />
        </mxCell>
        <mxCell id="Ing2cIt8eRQyEItcH29e-16" value="" style="endArrow=classic;html=1;rounded=0;" edge="1" parent="WIyWlLk6GJQsqaUBKTNV-1">
          <mxGeometry x="1" y="-157" width="50" height="50" relative="1" as="geometry">
            <mxPoint x="214.5" y="1160" as="sourcePoint" />
            <mxPoint x="215" y="1200" as="targetPoint" />
            <mxPoint x="17" y="70" as="offset" />
          </mxGeometry>
        </mxCell>
        <mxCell id="Ing2cIt8eRQyEItcH29e-17" value="Конец" style="rounded=1;whiteSpace=wrap;html=1;" vertex="1" parent="WIyWlLk6GJQsqaUBKTNV-1">
          <mxGeometry x="155" y="1200" width="120" height="60" as="geometry" />
        </mxCell>
      </root>
    </mxGraphModel>
  </diagram>
</mxfile>
